HIERARCHY
ROOT Hips
{
     OFFSET 3.63810 95.79970 -31.27830
     CHANNELS 6 Xposition Yposition Zposition Zrotation Xrotation Yrotation
     JOINT Spine
     {
          OFFSET -0.00000 11.89050 -0.00000
          CHANNELS 3 Zrotation Xrotation Yrotation
          JOINT Spine1
          {
               OFFSET -0.00000 25.65740 0.12766
               CHANNELS 3 Zrotation Xrotation Yrotation
               JOINT HEad
               {
                    OFFSET 0.00000 8.73416 0.01134
                    CHANNELS 3 Zrotation Xrotation Yrotation
                    End Site
                    {
                         OFFSET -0.29000 12.77420 2.51395
                    }
               }
               JOINT LeftShoulder1
               {
                    OFFSET 8.99000 -0.36225 -0.22000
                    CHANNELS 3 Zrotation Xrotation Yrotation
                    JOINT LeftArm
                    {
                         OFFSET 10.28270 -0.00338 0.32212
                         CHANNELS 3 Zrotation Xrotation Yrotation
                         JOINT LeftForeArm
                         {
                              OFFSET 32.76690 0.09914 -1.42434
                              CHANNELS 3 Zrotation Xrotation Yrotation
                              JOINT LeftHand
                              {
                                   OFFSET 27.56430 0.08536 1.02216
                                   CHANNELS 3 Zrotation Xrotation Yrotation
                                   End Site
                                   {
                                        OFFSET 16.74430 -0.60000 1.50291
                                   }
                              }
                         }
                    }
               }
               JOINT RightShoulder
               {
                    OFFSET -8.99000 -0.36225 -0.22000
                    CHANNELS 3 Zrotation Xrotation Yrotation
                    JOINT RightArm
                    {
                         OFFSET -10.28270 -0.00338 0.32212
                         CHANNELS 3 Zrotation Xrotation Yrotation
                         JOINT RightForeArm
                         {
                              OFFSET -32.89710 0.09914 -1.42434
                              CHANNELS 3 Zrotation Xrotation Yrotation
                              JOINT RightHand
                              {
                                   OFFSET -27.49210 0.08536 1.02216
                                   CHANNELS 3 Zrotation Xrotation Yrotation
                                   End Site
                                   {
                                        OFFSET -16.63120 -0.60000 1.50291
                                   }
                              }
                         }
                    }
               }
          }
     }
     JOINT LeftUpLeg
     {
          OFFSET 8.94580 -8.66707 0.10165
          CHANNELS 3 Zrotation Xrotation Yrotation
          JOINT LeftLeg
          {
               OFFSET -0.00000 -44.42270 1.37270
               CHANNELS 3 Zrotation Xrotation Yrotation
               JOINT LeftFoot
               {
                    OFFSET -0.25355 -42.09240 -1.46059
                    CHANNELS 3 Zrotation Xrotation Yrotation
                    JOINT LeftToes
                    {
                         OFFSET -0.04000 -4.41509 8.49910
                         CHANNELS 3 Zrotation Xrotation Yrotation
                         End Site
                         {
                              OFFSET 0.08000 -0.04745 9.77979
                         }
                    }
               }
          }
     }
     JOINT RightUpLeg
     {
          OFFSET -8.94580 -8.66707 0.10165
          CHANNELS 3 Zrotation Xrotation Yrotation
          JOINT RightLeg
          {
               OFFSET 0.00000 -44.42270 1.37270
               CHANNELS 3 Zrotation Xrotation Yrotation
               JOINT RightFoot
               {
                    OFFSET 0.25355 -42.09240 -1.46059
                    CHANNELS 3 Zrotation Xrotation Yrotation
                    JOINT RightToes
                    {
                         OFFSET 0.04000 -4.41509 8.49910
                         CHANNELS 3 Zrotation Xrotation Yrotation
                         End Site
                         {
                              OFFSET -0.08000 -0.13745 9.77979
                         }
                    }
               }
          }
     }
}
MOTION
Frames: 15
Frame Time: 0.01667
-18.22660 87.03870 -26.66750 9.88708 1.90307 -27.61460 -10.53190 2.70449 4.88272 -17.11740 4.17541 9.53553 -6.10854 -13.63110 59.74510 -0.00000 -0.00000 0.00000 -59.92340 -50.25360 -83.26790 -12.51090 18.60740 -72.93380 5.55594 9.67997 -0.87718 9.75291 0.99327 4.80401 62.16460 -23.75050 73.06620 29.61000 46.47390 93.58910 -5.55712 9.68432 0.87760 11.03330 -34.76130 10.19120 7.71376 52.64700 -4.07750 -17.07610 -9.43902 -0.22873 0.29395 -34.08940 -8.25080 -10.15380 1.81739 -6.88525 22.03520 50.59310 -34.81460 3.73730 -24.09740 0.27220 -10.62940 -15.01760 -3.63302 
-20.09700 86.27740 -25.79110 10.65850 2.18343 -20.75760 -11.77490 3.83047 4.48389 -18.89150 6.25941 8.88481 -5.15088 -15.03680 60.79810 -0.00000 -0.00000 0.00000 -62.46610 -45.22430 -88.32170 -12.65620 18.97260 -72.77500 5.55594 9.67997 -0.87718 11.48500 1.09047 4.77296 59.41140 -29.00810 69.87390 32.25680 48.19640 95.45430 -5.55712 9.68432 0.87760 7.89359 -36.16540 7.13292 11.33640 52.35910 -10.92650 -19.05310 -10.02600 -0.35678 0.17983 -33.66590 -9.89950 -9.51130 -0.17781 -8.58501 26.41060 56.60130 -38.82460 4.63390 -19.26640 0.23212 -8.41899 -12.77480 -4.46036 
-21.98910 85.50450 -24.80600 11.34620 2.55101 -13.60280 -12.77920 5.12996 4.08402 -20.25730 8.69599 8.28449 -4.43320 -15.89250 61.78070 -0.00000 -0.00000 0.00000 -65.02250 -39.62140 -92.95260 -13.12410 20.24550 -73.46850 5.55594 9.67997 -0.87718 13.49460 1.21776 4.82984 55.18750 -34.12650 65.56360 33.03260 49.13440 98.38110 -5.55712 9.68432 0.87760 5.03665 -37.42570 4.73036 14.63160 52.04810 -18.67500 -20.51460 -11.90280 -0.72195 0.34402 -31.00480 -10.23170 -8.97121 -2.33799 -10.79530 31.48960 62.65320 -41.79040 5.55887 -14.71920 0.13017 -4.69923 -8.03272 -3.31787 
-23.87030 84.71370 -23.68950 11.88690 3.04204 -6.50966 -13.48780 6.44671 3.69486 -21.14980 11.18590 7.72845 -3.78193 -16.31560 62.60040 -0.00000 -0.00000 0.00000 -66.61740 -33.93250 -96.35290 -13.74510 22.06270 -74.79070 5.55594 9.67997 -0.87718 15.62040 1.37284 4.98572 49.82260 -38.52210 59.99840 31.93080 49.21000 102.16000 -5.55712 9.68432 0.87760 2.49770 -38.56360 3.09976 18.16120 51.63950 -27.47710 -22.26340 -15.34330 -1.46235 0.73044 -25.43320 -9.41388 -8.57668 -4.61330 -13.59380 37.16980 68.78550 -44.29010 6.57100 -11.82510 0.04304 -0.43360 -1.89705 -1.59324 
-25.70410 83.90110 -22.46930 12.25170 3.61855 0.14371 -13.87410 7.64868 3.34226 -21.60330 13.48570 7.21990 -3.14780 -16.53670 63.24380 -0.00000 -0.00000 0.00000 -66.84110 -28.82850 -98.39560 -14.32300 23.94960 -76.38830 5.55594 9.67997 -0.87718 17.65890 1.54357 5.21272 44.09390 -41.78230 53.64720 29.66710 48.51500 106.03900 -5.55712 9.68432 0.87760 0.30512 -39.54710 1.95576 21.80050 50.99820 -36.32080 -24.62650 -19.47200 -2.54043 1.08804 -17.94510 -8.31995 -8.45256 -6.96163 -16.85650 44.06510 75.12640 -48.23680 7.74648 -11.41070 0.06069 3.58994 3.84460 -0.95041 
-27.47220 83.07380 -21.21530 12.48590 4.19484 5.99295 -14.00550 8.66115 3.08571 -21.70790 15.44540 6.81957 -2.59373 -16.73770 63.75780 -0.00000 -0.00000 0.00000 -65.83190 -24.83530 -99.34560 -14.70950 25.48110 -77.89480 5.55594 9.67997 -0.87718 19.42860 1.71265 5.47091 38.94290 -43.93080 47.44210 27.24350 47.35960 109.18300 -5.55712 9.68432 0.87760 -1.49546 -40.32750 0.94470 25.03410 50.15920 -43.93400 -27.30200 -23.26370 -3.78528 1.32613 -10.35370 -7.55278 -8.74316 -9.34248 -20.25060 56.03090 81.67380 -58.63100 9.29785 -13.36010 0.26129 7.63300 8.69118 -1.99356 
-29.19510 82.26810 -19.99810 12.64490 4.68043 10.77120 -14.00000 9.46926 2.99262 -21.54120 17.00810 6.62147 -2.21335 -17.01980 64.19750 -0.00000 -0.00000 0.00000 -64.11440 -22.18580 -99.50120 -14.87060 26.44330 -79.01810 5.55594 9.67997 -0.87718 20.79070 1.85989 5.71701 35.01570 -45.36920 42.25000 25.40310 46.17450 111.14400 -5.55712 9.68432 0.87760 -2.76587 -40.84860 -0.08246 27.40240 49.27240 -49.55440 -29.77580 -26.08820 -4.94071 1.50569 -4.34904 -7.32778 -9.49207 -11.67210 -23.24560 111.65300 86.97140 -114.45200 11.37270 -16.83140 0.69975 12.20840 12.87700 -4.71392 
-30.92320 81.54800 -18.84260 12.71750 4.98944 14.38820 -13.93340 10.09230 3.09269 -21.13580 18.18690 6.68044 -2.08172 -17.40590 64.58290 -0.00000 -0.00000 0.00000 -62.32730 -20.88270 -99.01090 -14.87800 26.85520 -79.59490 5.55594 9.67997 -0.87718 21.65750 1.96523 5.90788 32.48020 -46.53030 38.49920 24.39670 45.30170 111.96300 -5.55712 9.68432 0.87760 -3.26888 -41.04860 -1.02056 28.69750 48.43830 -53.07940 -31.62030 -27.75370 -5.77062 1.68281 -0.85370 -7.58937 -10.60750 -13.78090 -25.18610 -168.67400 83.51250 164.26900 13.68640 -20.63090 1.34140 17.11120 16.28400 -8.49021 
-32.70650 80.98540 -17.71690 12.62470 5.05392 16.94620 -13.78360 10.54960 3.35158 -20.49860 19.03160 6.95805 -2.19860 -17.84890 64.91810 -0.00000 -0.00000 0.00000 -60.93580 -20.82130 -97.87990 -14.83550 26.86650 -79.61320 5.55594 9.67997 -0.87718 22.04620 2.01944 6.01792 31.16910 -47.62680 36.19990 24.12550 44.89110 111.96200 -5.55712 9.68432 0.87760 -2.78581 -40.86470 -1.63893 28.96480 47.60320 -54.88360 -32.68440 -28.40540 -6.18423 1.83893 0.18339 -8.11069 -11.95710 -15.45980 -25.47900 -156.92799 78.38590 150.35699 15.59730 -23.78110 2.00287 21.50020 18.73250 -12.14570 
-34.57160 80.63880 -16.57050 12.27990 4.84878 18.68350 -13.46080 10.84900 3.68246 -19.63250 19.60630 7.32862 -2.46820 -18.28380 65.23550 -0.00000 -0.00000 0.00000 -60.11630 -21.86570 -96.05270 -14.81750 26.65610 -79.20180 5.55594 9.67997 -0.87718 22.06830 2.02752 6.04477 30.82080 -48.59580 35.16120 24.35850 44.91760 111.51600 -5.55712 9.68432 0.87760 -1.24324 -40.23990 -1.76327 28.36960 46.57210 -55.49680 -33.15510 -28.34470 -6.26122 1.93980 -0.46115 -8.68166 -13.75440 -16.45950 -23.00560 -158.80600 75.40650 150.71400 15.99520 -25.42590 2.29813 23.76100 19.88220 -14.01180 
-36.51620 80.58120 -15.35520 11.61850 4.38371 19.89800 -12.81920 10.98940 3.97197 -18.54050 19.97130 7.63978 -2.77310 -18.65500 65.56140 -0.00000 -0.00000 0.00000 -59.84460 -23.87550 -93.48840 -14.86080 26.40790 -78.60340 5.55594 9.67997 -0.87718 21.85080 2.00051 5.99779 31.22850 -49.19470 35.14750 24.84350 45.24430 110.93300 -5.55712 9.68432 0.87760 1.27729 -39.07810 -1.37706 27.02170 45.02950 -55.31740 -33.32210 -27.79380 -6.11946 1.98414 -1.87106 -9.19573 -15.53490 -16.90230 -19.71950 -159.90900 74.10090 150.87500 15.93080 -26.57590 2.45324 25.45160 20.87640 -15.21600 
-38.51880 80.86260 -14.06980 10.66460 3.71533 20.83750 -11.79320 10.98370 4.14096 -17.25050 20.17630 7.79592 -3.05885 -18.89220 65.85370 -0.00000 -0.00000 0.00000 -60.03950 -26.72680 -90.21830 -14.98530 26.32020 -78.13430 5.55594 9.67997 -0.87718 21.48830 1.94880 5.88918 32.22960 -49.17860 35.88590 25.36770 45.71110 110.41500 -5.55712 9.68432 0.87760 4.50778 -37.30380 -0.66670 24.97810 42.65470 -54.51400 -33.33830 -26.75240 -5.79140 1.97893 -3.54232 -9.59384 -17.39380 -16.77510 -16.27030 -160.17200 74.60120 150.69200 15.53480 -27.14700 2.46450 26.09150 21.33330 -15.58060 
-40.51670 81.47410 -12.71910 9.49746 2.92892 21.67150 -10.44470 10.86220 4.14070 -15.83630 20.24070 7.81201 -3.34534 -18.88710 66.02150 -0.00000 -0.00000 0.00000 -60.60710 -30.30790 -86.36070 -15.19890 26.56040 -78.10110 5.55594 9.67997 -0.87718 21.03360 1.88138 5.73730 33.64470 -48.41050 37.04680 25.80400 46.19470 110.03200 -5.55712 9.68432 0.87760 8.09784 -34.93830 0.05995 22.35260 39.31600 -53.16200 -33.13480 -25.12670 -5.24288 1.91112 -5.37472 -9.76306 -19.43310 -16.08700 -13.20630 -159.06400 76.89400 149.32401 14.86690 -26.92090 2.31375 25.03450 20.79920 -14.75080 
-42.53010 82.43220 -11.36630 8.20117 2.12296 22.35900 -8.84459 10.61260 4.05583 -14.36500 20.11960 7.79632 -3.69047 -18.49000 65.97880 -0.00000 -0.00000 0.00000 -61.36660 -34.45260 -82.05030 -15.48010 27.16670 -78.69130 5.55594 9.67997 -0.87718 20.50750 1.80886 5.57833 35.26170 -46.86810 38.29690 26.10780 46.59880 109.72600 -5.55712 9.68432 0.87760 11.82790 -31.90660 0.55372 19.22160 34.69160 -50.99070 -32.73760 -22.67140 -4.42162 1.75380 -7.35692 -9.47739 -21.85360 -15.00080 -10.23610 -159.20200 81.20890 149.28101 13.41330 -25.36530 1.86888 21.44890 18.67620 -12.13450 
-44.51130 83.62890 -10.04120 6.78968 1.36927 22.82770 -6.93808 10.18080 3.96897 -12.87460 19.71180 7.86485 -4.16094 -17.54990 65.66630 -0.00000 -0.00000 0.00000 -62.02150 -38.89700 -77.36340 -15.78200 28.02460 -79.90290 5.55594 9.67997 -0.87718 19.92090 1.74211 5.45616 36.86460 -44.61330 39.41960 26.25950 46.81520 109.36200 -5.55712 9.68432 0.87760 15.57570 -28.35470 0.63373 15.89030 28.95760 -47.84390 -32.08360 -19.29950 -3.32688 1.49922 -9.47053 -8.51246 -24.51140 -13.66650 -7.56266 -163.48000 87.24670 153.34100 11.42430 -22.79590 1.28929 16.19140 15.05350 -8.49403 
